<svg width="352" height="171" viewBox="0 0 352 171" fill="none" xmlns="http://www.w3.org/2000/svg">
<path d="M7.96892 129V47.034H58.6285V53.4091H14.5148V84.5448H51.798V90.92H14.5148V122.625H58.6285V129H7.96892ZM70.0615 129V127.235L116.281 53.4091H70.6308V47.034H126.698V48.9693L80.7057 122.682H126.527V129H70.0615ZM140.377 129V47.034H171.285C172.081 47.034 172.935 47.0719 173.846 47.1478C174.795 47.1858 175.781 47.2996 176.806 47.4894C180.904 48.1345 184.414 49.6144 187.336 51.9292C190.296 54.206 192.554 57.09 194.11 60.5812C195.666 64.0343 196.444 67.848 196.444 72.0222C196.444 76.2344 195.666 80.086 194.11 83.5772C192.554 87.0304 190.296 89.9144 187.336 92.2291C184.414 94.506 180.904 95.9669 176.806 96.612C175.781 96.7638 174.795 96.8777 173.846 96.9536C172.935 97.0295 172.081 97.0674 171.285 97.0674H146.922V129H140.377ZM146.922 90.6354H171.171C171.854 90.6354 172.632 90.5974 173.505 90.5215C174.415 90.4456 175.326 90.3318 176.237 90.18C179.197 89.5728 181.663 88.3775 183.636 86.594C185.61 84.7725 187.09 82.5905 188.076 80.0481C189.063 77.5056 189.556 74.8303 189.556 72.0222C189.556 69.2141 189.063 66.5578 188.076 64.0533C187.09 61.5109 185.61 59.3479 183.636 57.5643C181.663 55.7429 179.197 54.5286 176.237 53.9214C175.326 53.7317 174.415 53.5989 173.505 53.523C172.632 53.4471 171.854 53.4091 171.171 53.4091H146.922V90.6354ZM207.859 129V47.034H238.767C239.564 47.034 240.418 47.0719 241.328 47.1478C242.277 47.1858 243.264 47.2996 244.288 47.4894C248.387 48.1345 251.897 49.6144 254.819 51.9292C257.778 54.206 260.036 57.09 261.592 60.5812C263.148 64.0343 263.926 67.848 263.926 72.0222C263.926 78.0558 262.313 83.3115 259.088 87.7893C255.862 92.2671 251.365 95.1131 245.597 96.3274L243.719 97.0674H214.405V129H207.859ZM258.348 129L242.182 95.6444L248.273 92.5707L266.032 129H258.348ZM214.405 90.6354H238.653C239.336 90.6354 240.114 90.5974 240.987 90.5215C241.898 90.4456 242.808 90.3318 243.719 90.18C246.679 89.5728 249.145 88.3775 251.119 86.594C253.092 84.7725 254.572 82.5905 255.559 80.0481C256.545 77.5056 257.038 74.8303 257.038 72.0222C257.038 69.2141 256.545 66.5578 255.559 64.0533C254.572 61.5109 253.092 59.3479 251.119 57.5643C249.145 55.7429 246.679 54.5286 243.719 53.9214C242.808 53.7317 241.898 53.5989 240.987 53.523C240.114 53.4471 239.336 53.4091 238.653 53.4091H214.405V90.6354ZM311.295 130.708C303.136 130.708 296.287 128.905 290.746 125.3C285.206 121.657 281.032 116.629 278.224 110.216C275.416 103.803 274.012 96.4033 274.012 88.017C274.012 79.6307 275.416 72.2309 278.224 65.8179C281.032 59.4048 285.206 54.3958 290.746 50.7908C296.287 47.1478 303.136 45.3264 311.295 45.3264C319.453 45.3264 326.284 47.1478 331.786 50.7908C337.327 54.3958 341.501 59.4048 344.309 65.8179C347.117 72.2309 348.521 79.6307 348.521 88.017C348.521 96.4033 347.117 103.803 344.309 110.216C341.501 116.629 337.327 121.657 331.786 125.3C326.284 128.905 319.453 130.708 311.295 130.708ZM311.295 124.276C318.011 124.314 323.609 122.796 328.086 119.722C332.564 116.61 335.922 112.322 338.161 106.858C340.4 101.393 341.52 95.1131 341.52 88.017C341.52 80.9209 340.4 74.6406 338.161 69.1762C335.922 63.7118 332.564 59.4427 328.086 56.369C323.609 53.2953 318.011 51.7584 311.295 51.7584C304.578 51.7205 298.981 53.2384 294.503 56.3121C290.063 59.3858 286.724 63.6738 284.485 69.1762C282.246 74.6406 281.089 80.9209 281.013 88.017C280.937 95.1131 282.018 101.393 284.257 106.858C286.534 112.284 289.93 116.553 294.446 119.665C298.962 122.739 304.578 124.276 311.295 124.276Z" fill="white"/>
<path d="M312.092 91.1846C314.655 91.1846 316.733 89.1068 316.733 86.5437C316.733 83.9806 314.655 81.9028 312.092 81.9028C309.529 81.9028 307.451 83.9806 307.451 86.5437C307.451 89.1068 309.529 91.1846 312.092 91.1846Z" stroke="white" stroke-width="1.42011" stroke-linecap="round" stroke-linejoin="round"/>
<path d="M319.603 93.3531C321.316 91.8337 322.529 89.8303 323.081 87.6073C323.632 85.3844 323.497 83.0464 322.692 80.9021C321.887 78.7578 320.451 76.908 318.573 75.5969C316.695 74.2858 314.463 73.5751 312.173 73.5586C309.883 73.542 307.641 74.2205 305.745 75.5043C303.848 76.7881 302.385 78.617 301.549 80.7494C300.714 82.8819 300.544 85.2177 301.064 87.4483C301.583 89.679 302.767 91.6998 304.459 93.2438M303.983 71.7732C301.747 72.2822 299.66 73.3042 297.886 74.7584C296.113 76.2126 294.702 78.0592 293.765 80.1523C292.828 82.2454 292.391 84.5278 292.487 86.819C292.584 89.1103 293.212 91.3477 294.322 93.3545" stroke="white" stroke-width="1.42011" stroke-linecap="round" stroke-linejoin="round"/>
<path d="M297.108 93.3531C298.003 96.0233 299.532 98.4367 301.564 100.386C303.597 102.336 306.072 103.763 308.777 104.546C311.482 105.329 314.336 105.444 317.096 104.881C319.855 104.318 322.437 103.095 324.619 101.315C326.802 99.5352 328.52 97.2527 329.627 94.6631C330.733 92.0735 331.195 89.2542 330.973 86.4468C330.75 83.6395 329.85 80.928 328.35 78.5449C326.849 76.1618 324.793 74.1783 322.358 72.7644" stroke="white" stroke-width="1.42011" stroke-linecap="round" stroke-linejoin="round"/>
<path d="M290.011 101.293C286.665 96.7193 284.887 91.1864 284.944 85.5199C285 79.8533 286.887 74.3569 290.323 69.8507C293.759 65.3445 298.56 62.0701 304.01 60.5162C309.459 58.9622 315.265 59.2119 320.561 61.2281C325.858 63.2443 330.36 66.9189 333.396 71.7035C336.433 76.4881 337.841 82.1263 337.41 87.7768C336.98 93.4272 334.734 98.787 331.008 103.056C327.281 107.326 322.274 110.276 316.734 111.467" stroke="white" stroke-width="1.42011" stroke-linecap="round" stroke-linejoin="round"/>
</svg>
